<svg width="256" height="256" viewBox="0 0 124 148" fill="none" xmlns="http://www.w3.org/2000/svg">
  <rect width="256" height="256" rx="56" fill="#0B1324"/>
  <g transform="translate(38 28) scale(1.45)">
    <ellipse cx="42" cy="14" rx="42" ry="12" fill="#FFC143"/>
    <path d="M4 14C4 6.82 20.12 1 42 1C63.88 1 80 6.82 80 14" stroke="#FFF6E9" stroke-opacity="0.28" stroke-width="2" stroke-linecap="round"/>
    <path d="M13 17.5C21.8 19.9 30.93 21.1 42 21.1C53.07 21.1 62.2 19.9 71 17.5" stroke="#D59A2C" stroke-width="2.4" stroke-linecap="round"/>
    <path d="M40.6 23C39.35 48.4 38.65 68.2 37.8 95.35C37.62 101.52 39.5 106.3 42 106.3C44.5 106.3 46.38 101.52 46.2 95.35C45.35 68.2 44.65 48.4 43.4 23" fill="#FFC143"/>
    <path d="M42 107.8L49 123.8L42 139L35 123.8L42 107.8Z" fill="#FFC143" stroke="#FFC143" stroke-width="1.5" stroke-linejoin="round"/>
    <path d="M42 114L46.4 123.8L42 133.5L37.6 123.8L42 114Z" fill="#FFF6E9"/>
    <path d="M26.9 123.8L42 118.9L57.1 123.8L42 128.7L26.9 123.8Z" fill="#FFF6E9"/>
    <path d="M42 110.5V117.9M42 129.7V137.1M31.4 123.8H38.8M45.2 123.8H52.6" stroke="#FFC143" stroke-width="1.65" stroke-linecap="round"/>
  </g>
</svg>
